<svg width="18" height="18" viewBox="0 0 18 18" fill="none" xmlns="http://www.w3.org/2000/svg">
<path d="M17.74 14.0591C17.6983 13.8011 17.5365 13.5806 17.2943 13.4496L13.7105 11.3381L13.681 11.3216C13.5308 11.2464 13.3648 11.2078 13.1968 11.2091C12.8965 11.2091 12.6098 11.3228 12.4108 11.5223L11.353 12.5806C11.3078 12.6236 11.1603 12.6858 11.1155 12.6881C11.1033 12.6871 9.88479 12.5993 7.64154 10.3558C5.40229 8.11707 5.30729 6.89482 5.30654 6.89482C5.30779 6.83232 5.36929 6.68532 5.41304 6.63982L6.31504 5.73807C6.63279 5.41957 6.72804 4.89157 6.53954 4.48257L4.54754 0.734319C4.40279 0.436319 4.12154 0.252319 3.80954 0.252319C3.58879 0.252319 3.37579 0.343819 3.20929 0.510069L0.750542 2.96332C0.514792 3.19782 0.311792 3.60782 0.267542 3.93782C0.246042 4.09557 -0.190208 7.86107 4.97229 13.0243C9.35504 17.4066 12.7725 17.7471 13.7163 17.7471C13.8312 17.7485 13.9461 17.7426 14.0603 17.7293C14.3893 17.6853 14.7988 17.4828 15.033 17.2481L17.4898 14.7916C17.6903 14.5901 17.7818 14.3238 17.74 14.0591Z" fill="white"/>
</svg>
