<svg width="21" height="21" viewBox="0 0 21 21" fill="none" xmlns="http://www.w3.org/2000/svg">
<path d="M18.6081 16.3917C18.1007 15.9057 17.6069 15.4057 17.1272 14.8924C16.7242 14.4829 16.4815 14.185 16.4815 14.185L13.4482 12.7365C14.6626 11.3592 15.3328 9.58619 15.3332 7.74996C15.3332 3.56938 11.9315 0.166626 7.74984 0.166626C3.56817 0.166626 0.166504 3.56938 0.166504 7.74996C0.166504 11.9305 3.56817 15.3333 7.74984 15.3333C9.65975 15.3333 11.4007 14.6183 12.7364 13.4494L14.1848 16.4827C14.1848 16.4827 14.4828 16.7254 14.8923 17.1284C15.3115 17.5216 15.8629 18.0535 16.3916 18.6093L17.8628 20.1173L18.5171 20.8171L20.8148 18.5194L20.115 17.865C19.7044 17.462 19.1563 16.9269 18.6081 16.3917ZM7.74984 13.1666C4.76309 13.1666 2.33317 10.7367 2.33317 7.74996C2.33317 4.76321 4.76309 2.33329 7.74984 2.33329C10.7366 2.33329 13.1665 4.76321 13.1665 7.74996C13.1665 10.7367 10.7366 13.1666 7.74984 13.1666Z" fill="#A1A1A1"/>
</svg>
