<svg width="32" height="32" viewBox="0 0 32 32" fill="none" xmlns="http://www.w3.org/2000/svg">
<path d="M28.948 14.1481C28.8578 13.9561 28.6653 13.8333 28.4524 13.8333H26.8332C25.8037 8.24676 20.8981 4 15.0184 4C8.39184 4 3 9.39184 3 16.0184C3 22.6449 8.39129 28.0362 15.0184 28.0362C19.295 28.0362 23.2834 25.7344 25.427 22.0303C25.729 21.5076 25.5509 20.8399 25.0276 20.5373C24.5054 20.2347 23.8372 20.4128 23.5357 20.9356C21.781 23.9676 18.5172 25.8517 15.0184 25.8517C9.59667 25.8517 5.18506 21.4407 5.18506 16.0195C5.18506 10.5972 9.59667 6.18617 15.0184 6.18617C19.6883 6.18617 23.601 9.46154 24.5978 13.8339H22.9914C22.7784 13.8339 22.5864 13.9567 22.4957 14.1486C22.4055 14.3406 22.4349 14.5668 22.5709 14.73L25.3025 18.0076C25.4065 18.1321 25.5598 18.204 25.7224 18.204C25.8845 18.204 26.0383 18.1315 26.1417 18.0076L28.8733 14.73C29.0094 14.5663 29.0382 14.34 28.948 14.1481Z" fill="#51B3FA"/>
<path d="M15.0187 6.73145C14.4152 6.73145 13.9262 7.22046 13.9262 7.82398V14.4533C13.4322 14.7996 13.1069 15.3705 13.1069 16.0188C13.1069 17.0731 13.9649 17.9311 15.0193 17.9311C15.308 17.9311 15.5802 17.862 15.8258 17.7464L19.6262 19.9397C19.7987 20.0398 19.9857 20.0869 20.1716 20.0869C20.5489 20.0869 20.9162 19.891 21.1186 19.5403C21.4201 19.0187 21.2414 18.3499 20.7181 18.0484L16.9139 15.8517C16.863 15.2742 16.5626 14.7697 16.1124 14.4544V7.82398C16.1113 7.22101 15.6217 6.73145 15.0187 6.73145ZM15.0187 16.8375C14.5668 16.8375 14.1995 16.4696 14.1995 16.0188C14.1995 15.5674 14.5673 15.1995 15.0187 15.1995C15.4701 15.1995 15.838 15.5674 15.838 16.0188C15.838 16.4696 15.4701 16.8375 15.0187 16.8375Z" fill="#51B3FA"/>
</svg>
