<svg width="24" height="24" viewBox="0 0 24 24" fill="none" xmlns="http://www.w3.org/2000/svg">
<path fill-rule="evenodd" clip-rule="evenodd" d="M19.2211 8.60546H17.1526L16.0421 4.40966C16.0046 4.32321 15.9512 4.2458 15.8852 4.18208C15.8192 4.11835 15.7419 4.06962 15.6579 4.0388C15.574 4.00799 15.4851 3.99573 15.3966 4.00276C15.3081 4.00979 15.2219 4.03597 15.143 4.07972L15.0669 4.12125C14.9056 4.21206 14.7833 4.3664 14.7255 4.55197C14.6677 4.73754 14.6789 4.93995 14.7568 5.11685L15.5518 8.60431H8.41279L9.23677 5.12146C9.31566 4.94538 9.32834 4.74337 9.27218 4.55749C9.21602 4.3716 9.09535 4.21617 8.93529 4.12356L8.86019 4.08203C8.78168 4.03752 8.69564 4.01047 8.60719 4.00249C8.51875 3.99451 8.42972 4.00577 8.34541 4.03559C8.2611 4.06541 8.18324 4.11319 8.11648 4.17607C8.04972 4.23895 7.99541 4.31565 7.95682 4.40159L6.80561 8.60431H4.77784C4.34869 8.60431 4 8.95271 4 9.37956C4 9.37956 4.34762 10.787 4.77784 10.787H5.4602L5.94193 18.4899C5.94193 18.4899 5.99772 20 8.20894 20H15.7417C18.0431 20 18.0109 18.4587 18.0109 18.4587L18.4003 10.7882H19.2222C19.6513 10.7882 20 9.38071 20 9.38071C19.9989 8.95386 19.6502 8.60546 19.2211 8.60546ZM9.36981 17.4401C9.36981 17.8438 9.10052 18.1703 8.77007 18.1703H8.74539C8.41172 18.1703 8.1435 17.8438 8.1435 17.4401V12.4459C8.1435 12.0422 8.41172 11.7168 8.74539 11.7168H8.77007C9.10052 11.7168 9.36981 12.0422 9.36981 12.4459V17.4401ZM12.5863 17.2151C12.5863 17.6004 12.3321 17.9131 12.0188 17.9131H11.9962C11.6819 17.9131 11.4287 17.6004 11.4287 17.2151V12.4863C11.4287 12.101 11.6819 11.7895 11.9962 11.7895H12.0188C12.3321 11.7895 12.5863 12.1022 12.5863 12.4863V17.2151ZM15.7707 17.3212C15.7707 17.7112 15.5078 18.0261 15.1849 18.0261H15.1613C14.8373 18.0261 14.5765 17.7112 14.5765 17.3212V12.5267C14.5765 12.1368 14.8373 11.8218 15.1613 11.8218H15.1849C15.5078 11.8218 15.7707 12.1368 15.7707 12.5267V17.3212Z" fill="white"/>
</svg>
