<svg width="34" height="32" viewBox="0 0 34 32" fill="none" xmlns="http://www.w3.org/2000/svg">
<path d="M28.2059 24.5294C28.2059 26.037 27.0299 27.5231 24.8558 28.6619C22.7054 29.7883 19.7 30.5 16.3529 30.5C13.0059 30.5 10.0005 29.7883 7.8501 28.6619C5.67601 27.5231 4.5 26.037 4.5 24.5294C4.5 23.0219 5.67601 21.5358 7.8501 20.3969C10.0005 19.2705 13.0059 18.5588 16.3529 18.5588C19.7 18.5588 22.7054 19.2705 24.8558 20.3969C27.0299 21.5358 28.2059 23.0219 28.2059 24.5294Z" fill="#FFCC00" stroke="white"/>
<path d="M28.2059 20.4118C28.2059 21.9193 27.0299 23.4054 24.8558 24.5442C22.7054 25.6706 19.7 26.3823 16.3529 26.3823C13.0059 26.3823 10.0005 25.6706 7.8501 24.5442C5.67601 23.4054 4.5 21.9193 4.5 20.4118C4.5 18.9042 5.67601 17.4181 7.8501 16.2793C10.0005 15.1529 13.0059 14.4412 16.3529 14.4412C19.7 14.4412 22.7054 15.1529 24.8558 16.2793C27.0299 17.4181 28.2059 18.9042 28.2059 20.4118Z" fill="#FFCC00" stroke="white"/>
<path d="M28.2059 16.2941C28.2059 17.8016 27.0299 19.2878 24.8558 20.4266C22.7054 21.553 19.7 22.2647 16.3529 22.2647C13.0059 22.2647 10.0005 21.553 7.8501 20.4266C5.67601 19.2878 4.5 17.8016 4.5 16.2941C4.5 14.7865 5.67601 13.3004 7.8501 12.1616C10.0005 11.0352 13.0059 10.3235 16.3529 10.3235C19.7 10.3235 22.7054 11.0352 24.8558 12.1616C27.0299 13.3004 28.2059 14.7865 28.2059 16.2941Z" fill="#FFCC00" stroke="white"/>
<path d="M28.2059 11.5883C28.2059 13.0958 27.0299 14.5819 24.8558 15.7207C22.7054 16.8471 19.7 17.5589 16.3529 17.5589C13.0059 17.5589 10.0005 16.8471 7.8501 15.7207C5.67601 14.5819 4.5 13.0958 4.5 11.5883C4.5 10.0807 5.67601 8.59459 7.8501 7.45578C10.0005 6.32938 13.0059 5.61768 16.3529 5.61768C19.7 5.61768 22.7054 6.32938 24.8558 7.45578C27.0299 8.59459 28.2059 10.0807 28.2059 11.5883Z" fill="#FFCC00" stroke="white"/>
<path d="M28.2059 7.47059C28.2059 8.97816 27.0299 10.4643 24.8558 11.6031C22.7054 12.7295 19.7 13.4412 16.3529 13.4412C13.0059 13.4412 10.0005 12.7295 7.8501 11.6031C5.67601 10.4643 4.5 8.97816 4.5 7.47059C4.5 5.96302 5.67601 4.47691 7.8501 3.33811C10.0005 2.21171 13.0059 1.5 16.3529 1.5C19.7 1.5 22.7054 2.21171 24.8558 3.33811C27.0299 4.47691 28.2059 5.96302 28.2059 7.47059Z" fill="#FFCC00" stroke="white"/>
<path fill-rule="evenodd" clip-rule="evenodd" d="M16.9527 7.87887V7.62612C17.4925 7.6234 18.0395 7.62612 18.5793 7.61525C20.5298 7.5772 22.0628 7.31357 21.998 6.45747C21.962 6.04437 20.7745 5.87043 19.8604 5.81336C19.0759 5.76444 17.6364 5.76444 16.8591 5.82423C15.9666 5.88946 14.8942 6.06611 14.8942 6.46834V6.82709C13.2532 6.70479 12.7638 6.34876 12.2888 5.82151C12.0153 5.5144 12.1331 4.92695 12.2891 4.9057C14.6643 4.58228 17.2837 4.58485 19.299 4.90283C19.2054 5.11754 19.1479 5.2643 19.0615 5.47085H21.1127C21.1775 5.33224 21.2351 5.19363 21.3071 5.05774C21.4942 4.69084 21.2999 4.42994 19.9684 4.21523C17.4421 3.81028 14.2037 3.81043 11.663 4.19636C10.4754 4.37573 9.9716 4.58228 10.2163 5.06877C10.9001 6.42766 11.1588 7.38424 14.8942 7.56361V7.88431C12.0585 7.9903 10.5254 8.54473 10 9.5802H12.0513C12.5119 8.94968 13.2964 8.65888 14.8942 8.58549V9.03936C14.8942 9.43888 15.9666 9.61825 16.8591 9.68348C17.6364 9.74055 19.0759 9.74055 19.8604 9.69163C20.7745 9.63456 21.962 9.46062 21.998 9.04752C22.0628 8.1887 20.5226 7.92507 18.5649 7.88974C18.0251 7.87887 17.4925 7.88159 16.9527 7.87887ZM19.9684 6.55531C19.9828 6.69664 19.8172 6.79448 19.4933 6.85427C18.7736 6.99016 17.111 6.95211 16.9455 6.94939V6.56618C17.8235 6.4765 19.0831 6.47378 19.9684 6.55531ZM16.9455 8.93881V8.5556C17.1254 8.55288 18.716 8.51755 19.443 8.64257C19.7884 8.70236 19.9828 8.8002 19.9684 8.94968C19.0831 9.03121 17.8235 9.02849 16.9455 8.93881Z" fill="white"/>
<circle cx="25" cy="23" r="8" fill="#E31E24" stroke="white" stroke-width="2"/>
<path d="M24.6596 24.944V26H20.4276V25.16L22.5876 23.12C22.8169 22.9013 22.9716 22.7147 23.0516 22.56C23.1316 22.4 23.1716 22.2427 23.1716 22.088C23.1716 21.864 23.0943 21.6933 22.9396 21.576C22.7903 21.4533 22.5689 21.392 22.2756 21.392C22.0303 21.392 21.8089 21.44 21.6116 21.536C21.4143 21.6267 21.2489 21.7653 21.1156 21.952L20.1716 21.344C20.3903 21.0187 20.6916 20.7653 21.0756 20.584C21.4596 20.3973 21.8996 20.304 22.3956 20.304C22.8116 20.304 23.1743 20.3733 23.4836 20.512C23.7983 20.6453 24.0409 20.8373 24.2116 21.088C24.3876 21.3333 24.4756 21.624 24.4756 21.96C24.4756 22.264 24.4116 22.5493 24.2836 22.816C24.1556 23.0827 23.9076 23.3867 23.5396 23.728L22.2516 24.944H24.6596ZM29.3784 24.944V26H25.1464V25.16L27.3064 23.12C27.5357 22.9013 27.6904 22.7147 27.7704 22.56C27.8504 22.4 27.8904 22.2427 27.8904 22.088C27.8904 21.864 27.813 21.6933 27.6584 21.576C27.509 21.4533 27.2877 21.392 26.9944 21.392C26.749 21.392 26.5277 21.44 26.3304 21.536C26.133 21.6267 25.9677 21.7653 25.8344 21.952L24.8904 21.344C25.109 21.0187 25.4104 20.7653 25.7944 20.584C26.1784 20.3973 26.6184 20.304 27.1144 20.304C27.5304 20.304 27.893 20.3733 28.2024 20.512C28.517 20.6453 28.7597 20.8373 28.9304 21.088C29.1064 21.3333 29.1944 21.624 29.1944 21.96C29.1944 22.264 29.1304 22.5493 29.0024 22.816C28.8744 23.0827 28.6264 23.3867 28.2584 23.728L26.9704 24.944H29.3784Z" fill="white"/>
</svg>
