<svg viewBox="0 0 225 80" fill="none" xmlns="http://www.w3.org/2000/svg">
<path fill-rule="evenodd" clip-rule="evenodd" d="M99.2913 51.6041C99.6168 51.6041 101.155 51.6341 101.481 51.6341C106.067 51.7543 109.973 53.2268 109.796 58.756C109.737 61.0097 107.606 62.3019 104.913 62.7526C103.227 63.0531 100.593 63.0231 98.9066 62.6925C96.3619 62.1817 94.4089 60.8895 94.4089 58.6959V56.4722C93.6988 56.7126 92.9886 56.983 92.3376 57.3737L90 53.4972C91.3611 52.746 92.8702 52.175 94.4089 51.8445V49.7109C92.8702 49.3803 91.3611 48.8394 90 48.0581L92.3376 44.2117C92.9886 44.5723 93.6988 44.8728 94.4089 45.0832V43.3403C94.4089 41.1466 96.3619 39.8244 98.9066 39.3136C100.593 38.983 103.227 38.983 104.913 39.2835C107.606 39.7343 109.737 41.0264 109.796 43.2802C109.973 48.8094 106.067 50.2518 101.481 50.372C101.155 50.4021 99.6168 50.4021 99.2913 50.4321V51.6041ZM159.537 30.0581C159.655 29.4271 159.744 28.796 159.862 28.195C167.763 30.2985 179.865 30.1783 187.292 28.2251C187.411 28.8261 187.499 29.4271 187.618 30.0581C179.954 32.1917 167.23 32.1917 159.537 30.0581ZM160.691 23.7176C161.312 20.4121 161.963 17.1366 162.525 13.6809H157.584L154.802 28.9763C154.27 31.771 155.335 33.1533 157.554 34.2051C159.3 35.0465 161.401 35.5874 163.324 35.8879C169.213 36.8795 177.971 36.8495 183.83 35.8879C185.635 35.5874 187.47 35.1366 189.127 34.4154C191.672 33.3336 192.914 31.9513 192.352 28.9763L189.541 13.6809H184.629C185.191 17.1366 185.842 20.4121 186.464 23.7176C183.357 24.4688 179.628 24.8895 175.782 25.0097V13.6809H170.929V25.0097C167.26 24.8595 163.679 24.4388 160.691 23.7176ZM203.005 13.6809L201.111 23.8979C206.141 25.2501 213.953 25.2501 218.954 23.8979L217.119 13.6809H222.031C222.948 18.8495 223.866 24.0782 224.842 29.2167C225.345 31.7109 224.783 33.4538 221.143 34.8662C217.918 36.2785 213.479 36.6091 210.017 36.6091C206.496 36.6091 201.821 36.2485 198.596 34.7159C195.252 33.3336 194.749 31.6208 195.222 29.2167L198.093 13.6809H203.005ZM200.253 28.4655L199.898 30.3286C202.975 31.3804 206.792 31.6809 210.017 31.6809C213.243 31.6809 217.06 31.3804 220.108 30.3286L219.782 28.4655C214.545 30.1483 205.609 30.1783 200.253 28.4655ZM117.637 14.973C120.862 16.3553 121.336 18.0682 120.892 20.4421C120.655 21.5239 120.478 22.6358 120.3 23.7476H115.359C115.625 22.2752 115.891 20.8027 116.158 19.3303C111.305 17.4972 101.895 17.4972 96.1843 19.3303C96.4211 20.4722 96.5986 21.4638 96.8945 22.6057C98.4628 28.4354 100.268 31.5607 106.659 31.7109C110.358 31.8011 113.938 30.7493 115.595 29.7877L117.992 34.0548C115.803 35.347 111.187 36.7293 106.57 36.6091C95.2966 36.3386 93.0774 30.0882 91.2724 20.5022C90.6806 17.347 91.8938 15.9947 94.7344 14.8528C100.86 12.3586 111.571 12.3586 117.637 14.973ZM149.772 24.7092C153.441 23.2969 153.974 21.554 153.5 19.0598C153.175 17.2568 152.849 15.4839 152.524 13.6809H147.582L148.766 20.1717C143.676 22.0047 134.119 22.0648 128.556 20.1717L129.769 13.6809H124.887L123.881 19.0598C123.407 21.4638 123.91 23.1767 127.224 24.559C131.367 26.3019 137.64 26.9029 143.233 26.2418L144.061 30.7794C140.895 32.2218 135.983 31.9513 133.29 30.8996C133.468 29.968 133.645 29.0364 133.793 28.1049H128.822C128.704 28.796 128.556 29.4872 128.438 30.2084C128.023 32.4922 128.556 34.145 131.604 35.4972C135.746 37.2401 141.723 37.3002 146.251 35.2568C148.914 33.9346 149.358 32.3119 148.914 30.0882C148.618 28.4955 148.322 26.963 147.997 25.3403C148.529 25.19 149.328 24.9196 149.772 24.7092ZM126.721 28.1049C126.13 31.1399 125.715 33.3036 125.123 36.3687C122.283 35.1667 120.833 33.2735 121.277 30.6591L121.75 28.1049H126.721ZM220.108 45.6842C214.545 43.7309 204.898 43.7309 199.927 45.6842L200.43 48.5389H195.489L195.163 46.796C194.719 44.392 195.222 42.6792 198.566 41.2969C204.632 38.7426 215.137 38.7426 221.262 41.2067C224.25 42.3787 225.375 43.761 224.753 47.0364C224.191 49.9212 223.629 51.9947 222.741 54.5189C224.191 56.7426 224.931 59.6274 224.931 62.3019H220.108C220.108 62.0014 219.989 60.0181 219.634 59.2668C218.036 60.7393 216.083 61.7309 214.012 62.3319C212.089 62.8728 209.988 63.0832 208.005 62.963C196.584 62.3019 192.263 51.7543 205.046 48.8695C209.574 47.8478 214.9 48.4187 218.894 50.9129C219.368 49.3503 219.753 47.5172 220.108 45.6842ZM212.71 57.584C214.278 57.1333 215.699 56.382 216.675 55.3002C215.077 54.1884 213.036 53.5874 211.112 53.4071C209.366 53.2268 207.65 53.3169 206.112 53.6775C204.307 54.0682 202.886 54.7293 202.324 55.5106C202.709 56.1717 203.448 56.7126 204.366 57.1333C206.822 58.2752 210.136 58.3052 212.71 57.584ZM191.139 62.3019L187.174 52.2652C185.813 48.3887 181.315 48.3887 179.954 52.2652L175.989 62.3019H170.84L175.397 50.6124C176.403 47.7877 178.326 45.9246 180.516 45.0531H174.213V40.0949H192.914V45.0531H186.612C188.801 45.9246 190.725 47.7877 191.731 50.6124L196.288 62.3019H191.139ZM168.591 41.3269C171.817 42.7092 172.29 44.392 171.846 46.766C171.61 47.8778 171.432 48.9897 171.254 50.1016H166.313C166.579 48.6291 166.845 47.1566 167.112 45.6541C162.111 43.8211 152.701 43.8211 147.138 45.6842C147.375 46.8261 147.553 47.8177 147.849 48.9596C149.417 54.7894 151.222 57.8845 157.613 58.0348C161.312 58.1249 164.893 57.1032 166.55 56.1416L168.946 60.4087C166.757 61.6708 162.141 63.0531 157.525 62.963C146.251 62.6925 144.032 56.4421 142.227 46.8561C141.635 43.7009 142.848 42.3486 145.689 41.1767C151.814 38.7126 162.525 38.7126 168.591 41.3269ZM116.809 56.6825C122.342 58.6358 132.018 58.6658 136.989 56.6825L136.456 53.8278H141.398L141.723 55.5707C142.197 57.9747 141.694 59.6875 138.321 61.0698C132.255 63.6241 121.75 63.6241 115.655 61.16C112.666 59.988 111.512 58.6057 112.163 55.3303C112.696 52.4455 113.347 50.2218 114.205 47.6975C113.317 46.3152 112.666 44.7526 112.311 43.0999H117.282C118.88 41.6274 120.803 40.6358 122.875 40.0348C124.828 39.4939 126.899 39.2835 128.881 39.4037C140.303 40.0648 144.653 50.6124 131.84 53.4972C127.313 54.5189 121.987 53.948 117.992 51.4538C117.519 53.0164 117.134 54.8495 116.809 56.6825ZM124.206 44.7827C122.608 45.2334 121.218 45.9847 120.211 47.0665C121.839 48.1783 123.851 48.7793 125.804 48.9596C127.52 49.1399 129.266 49.0498 130.775 48.6892C132.58 48.2985 134 47.6374 134.592 46.8561C134.178 46.195 133.438 45.6541 132.551 45.2334C130.095 44.0915 126.751 44.0615 124.206 44.7827ZM99.2913 44.0615V46.0448C100.83 46.0748 105.091 46.195 105.002 44.0014C103.256 43.5807 101.008 43.5807 99.2913 44.0615ZM99.2913 57.9747V55.9613C100.83 55.9613 105.091 55.8411 105.002 58.0348C103.256 58.4555 101.008 58.4555 99.2913 57.9747Z" fill="#1D1E1C"/>
<path fill-rule="evenodd" clip-rule="evenodd" d="M39.9861 0C62.0742 0 80 17.9258 80 40.0139C80 62.0742 62.0742 80 39.9861 80C17.898 80 0 62.0742 0 40.0139C0 17.9258 17.898 0 39.9861 0Z" fill="#E31E24"/>
<path fill-rule="evenodd" clip-rule="evenodd" d="M44.4795 49.393V46.8123C46.5606 46.7846 48.6696 46.8123 50.7507 46.7013C58.2707 46.3128 64.1812 43.6212 63.9314 34.8803C63.7927 30.6625 59.2141 28.8865 55.69 28.3038C52.6654 27.8043 47.1156 27.8043 44.1187 28.4148C40.6779 29.0808 36.5433 30.8845 36.5433 34.9913V38.6541C30.2166 37.4054 28.3296 33.7703 26.4982 28.3871C25.4438 25.2514 24.6945 22.0048 24.2783 19.0357C33.4354 15.7336 48.1701 15.7613 55.9398 19.0079C55.579 21.2001 55.357 22.6985 55.0241 24.8075H62.9325C63.1822 23.3923 63.4042 21.9771 63.6817 20.5896C64.4032 16.8435 63.654 14.1796 58.5204 11.9875C48.7806 7.85289 31.6595 7.85289 21.8642 11.7932C17.2856 13.6247 15.3432 15.7336 16.2866 20.7006C18.9228 34.5751 22.1416 44.3427 36.5433 46.1741V49.4485C25.6103 50.5307 19.6997 56.1914 17.6741 66.7638H25.5825C27.3584 60.326 30.3831 57.3569 36.5433 56.6077V61.2417C36.5433 65.3208 40.6779 67.1522 44.1187 67.8182C47.1156 68.4009 52.6654 68.4009 55.69 67.9015C59.2141 67.3187 63.7927 65.5428 63.9314 61.325C64.1812 52.5563 58.2429 49.8647 50.6952 49.5039C48.6141 49.393 46.5606 49.4207 44.4795 49.393ZM56.1063 35.8793C56.1618 37.3222 55.5235 38.3212 54.2748 38.9316C51.4999 40.3191 45.09 39.9306 44.4517 39.9028V35.9902C47.8371 35.0745 52.6931 35.0468 56.1063 35.8793ZM44.4517 60.215V56.3024C45.1455 56.2747 51.278 55.9139 54.0806 57.1904C55.4125 57.8009 56.1618 58.7998 56.1063 60.326C52.6931 61.1585 47.8371 61.1307 44.4517 60.215Z" fill="#FEFEFE"/>
</svg>
