<svg width="32" height="32" viewBox="0 0 32 32" fill="none" xmlns="http://www.w3.org/2000/svg">
<g clip-path="url(#clip0)">
<path d="M28.1031 19.2036L26.9183 12.8852H28.7918V11.0102H26.5667L26.2152 9.13509H18.8744V11.0101H20.8686L22.4881 22.8858H17.1949L15.3941 18.8165C16.2927 18.3465 16.9078 17.4055 16.9078 16.323C16.9078 14.7721 15.6461 13.5104 14.0952 13.5104H11.8969V3.48853H0V15.3853H3.13581V19.1356H6.3715C5.15369 20.3276 4.39663 21.9886 4.39663 23.8233V24.7608H6.36594C6.80144 26.8979 8.6955 28.511 10.9594 28.511C13.2233 28.511 15.1173 26.8979 15.5528 24.7608H22.7189C23.1544 26.8979 25.0485 28.511 27.3123 28.511C29.8971 28.511 32.0001 26.4081 32.0001 23.8233C32 21.5081 30.3124 19.5808 28.1031 19.2036ZM1.875 13.5103V5.36353H10.0218V13.5103H1.875ZM5.01081 17.2606V15.3853H14.0951C14.6121 15.3853 15.0328 15.806 15.0328 16.323C15.0328 16.84 14.6121 17.2606 14.0951 17.2606H5.01081ZM10.9593 19.1356H13.4848L15.1445 22.8858H6.36575C6.80119 20.7485 8.69538 19.1356 10.9593 19.1356ZM10.9593 26.636C9.737 26.636 8.69481 25.8521 8.30781 24.7608H13.6108C13.2238 25.8521 12.1816 26.636 10.9593 26.636ZM24.6591 11.0101L26.2075 19.2683C25.3816 19.4687 24.6407 19.8881 24.0498 20.4618L22.7609 11.0101H24.6591V11.0101ZM27.3123 26.636C25.7613 26.636 24.4996 25.3743 24.4996 23.8233C24.4996 22.2723 25.7613 21.0106 27.3123 21.0106C28.8632 21.0106 30.125 22.2723 30.125 23.8233C30.125 25.3743 28.8633 26.636 27.3123 26.636Z" fill="#B558E1"/>
</g>
<defs>
<clipPath id="clip0">
<rect width="32" height="32" fill="white"/>
</clipPath>
</defs>
</svg>
